HIERARCHY
ROOT Hips
{
	OFFSET 0.000000 0.000000 0.000000 
	CHANNELS 6 Xposition Yposition Zposition Yrotation Zrotation Xrotation 
	JOINT Lumbar
	{
		OFFSET 0.000000 0.000000 0.000000 
		CHANNELS 3 Zrotation Xrotation Yrotation
		JOINT Neck
		{
			OFFSET 0.000000 0.445665 0.000000 
			CHANNELS 3 Zrotation Xrotation Yrotation
			End Site
			{
				OFFSET 0.000000 0.227535 0.000000 
			}
		}
		JOINT RightShoulder
		{
			OFFSET 0.019635 0.377685 0.194865 
			CHANNELS 3 Zrotation Xrotation Yrotation
			JOINT RightElbow
			{
				OFFSET 0.000000 -0.243375 0.000000 
				CHANNELS 2 Zrotation Yrotation
				JOINT RightWrist
				{
					OFFSET 0.000000 -0.264825 0.000000 
					CHANNELS 2 Zrotation Xrotation
					End Site
					{
						OFFSET 0.006600 -0.176220 0.000990 
					}
				}
			}
		}
		JOINT LeftShoulder
		{
			OFFSET 0.019635 0.377685 -0.194865 
			CHANNELS 3 Zrotation Xrotation Yrotation
			JOINT LeftElbow
			{
				OFFSET 0.000000 -0.243375 0.000000 
				CHANNELS 2 Zrotation Yrotation
				JOINT LeftWrist
				{
					OFFSET 0.000000 -0.264825 0.000000 
					CHANNELS 2 Zrotation Xrotation
					End Site
					{
						OFFSET 0.006600 -0.176220 -0.000990 
					}
				}
			}
		}
	}
	JOINT RightHip
	{
		OFFSET 0.052140 -0.069960 0.075570 
		CHANNELS 3 Zrotation Xrotation Yrotation
		JOINT RightKnee
		{
			OFFSET 0.000000 -0.402270 0.000000 
			CHANNELS 1 Zrotation
			JOINT RightAnkle
			{
				OFFSET 0.000000 -0.404085 0.000000 
				CHANNELS 3 Zrotation Xrotation Yrotation
				End Site
				{
					OFFSET 0.204105 -0.089430 0.008415 
				}
			}
		}
	}
	JOINT LeftHip
	{
		OFFSET 0.052140 -0.069960 -0.075570 
		CHANNELS 3 Zrotation Xrotation Yrotation
		JOINT LeftKnee
		{
			OFFSET 0.000000 -0.402270 0.000000 
			CHANNELS 1 Zrotation
			JOINT LeftAnkle
			{
				OFFSET 0.000000 -0.404085 0.000000 
				CHANNELS 3 Zrotation Xrotation Yrotation
				End Site
				{
					OFFSET 0.204105 -0.089430 -0.008415 
				}
			}
		}
	}
}
MOTION
Frames: 31
Frame Time: 0.02
0.68985 0.54801 -0.05177 181.7275 0 -3.94396 24.19325 4.3487 -1.92091 -43.54164 5.42834 6.09511 59.54304 -13.00993 62.23167 107.24877 104.69793 65.48194 -1.98491 51.84516 -3.93846 -62.07978 86.89871 -51.96726 57.35266 6.35571 76.85212 3.13431 -6.13906 -72.62072 -18.33192 -1.18636 -13.08075 76.97941 7.6866 3.1124 -72.885 -12.13015 1.29819 18.66904
0.69019 0.54796 -0.05155 181.73292 0 -3.95153 24.17866 4.30272 -2.1769 -43.05209 5.49516 5.92781 59.12948 -12.88957 62.45654 107.20542 104.80665 65.4322 -1.89322 53.58533 -0.76217 -62.4409 92.07464 -53.80864 62.21122 9.2498 76.89084 3.0915 -6.11494 -72.63133 -18.45736 -1.18494 -12.90555 76.98574 7.63286 3.06439 -72.85774 -12.14024 1.29262 18.68316
0.69054 0.54794 -0.05132 181.73018 0 -3.95013 24.12875 4.24737 -2.48689 -42.39153 5.59385 5.7297 58.62715 -12.78118 62.81903 107.15158 104.92804 65.23665 -1.74667 55.70474 3.20215 -62.90464 98.56154 -55.94311 68.39313 12.91909 76.93691 3.0556 -6.06312 -72.64525 -18.63131 -1.17938 -12.69061 76.9812 7.59491 3.04157 -72.81923 -12.1528 1.28726 18.69683
0.69089 0.5479 -0.0511 181.73146 0 -3.95333 24.09965 4.1991 -2.75805 -41.818 5.67062 5.55318 58.15249 -12.669 63.09712 107.10712 105.08317 65.10072 -1.62935 57.5124 6.59357 -63.30833 104.08447 -57.55927 73.78654 16.11748 76.98036 3.01645 -6.02584 -72.65832 -18.78121 -1.17563 -12.49659 76.98329 7.55106 3.00774 -72.78744 -12.16551 1.28176 18.7101
0.69124 0.5479 -0.05085 181.73226 0 -3.9547 24.05072 4.13942 -3.08923 -41.20509 5.7775 5.34451 57.72362 -12.54691 63.46089 107.04333 105.07664 64.98992 -1.49579 59.89942 10.87747 -63.77106 111.13338 -60.74748 79.96664 19.81297 77.02103 2.97695 -5.98062 -72.66904 -18.94038 -1.1721 -12.28981 76.97861 7.50089 2.97146 -72.74894 -12.17319 1.27638 18.72596
0.6916 0.54781 -0.05066 181.73182 0 -3.95756 24.03415 4.10088 -3.30969 -40.63156 5.83037 5.19516 57.18117 -12.44942 63.68285 107.01668 105.4018 64.79434 -1.38234 61.1818 13.5108 -64.13466 115.35402 -60.79611 84.828 22.66275 77.06896 2.94011 -5.94518 -72.68522 -19.09118 -1.16722 -12.10038 76.98518 7.46791 2.94651 -72.72164 -12.19163 1.27083 18.73639
0.69195 0.54748 -0.05063 181.72976 0 -3.96736 24.12096 4.12575 -3.19395 -40.23403 5.71884 5.22179 56.34766 -12.41773 63.46181 107.10236 106.71484 64.38252 -1.33741 59.21432 11.19645 -64.19433 111.09533 -51.54842 85.66916 22.93439 77.13715 2.90913 -5.94414 -72.71632 -19.21038 -1.15886 -11.9692 77.02721 7.47964 2.94671 -72.72906 -12.24147 1.26459 18.73087
0.69231 0.54706 -0.05065 181.72662 0 -3.9788 24.24052 4.17175 -2.96768 -39.87763 5.5537 5.30846 55.40375 -12.41097 63.09723 107.22467 108.34738 63.89091 -1.31438 56.14133 7.22887 -64.1512 104.00797 -39.23293 85.14711 22.33743 77.21202 2.88069 -5.95371 -72.75264 -19.31884 -1.1494 -11.85685 77.08063 7.50806 2.9575 -72.74797 -12.30166 1.25819 18.72009
0.69266 0.5467 -0.05065 181.724 0 -3.98906 24.34161 4.20619 -2.80349 -39.4861 5.4176 5.36455 54.51106 -12.39233 62.81084 107.32531 109.78486 63.45161 -1.2814 53.64511 4.14837 -64.15809 98.44606 -28.68911 85.28543 22.17343 77.28244 2.85101 -5.95799 -72.78608 -19.42984 -1.14097 -11.73557 77.12767 7.5283 2.9636 -72.76095 -12.35554 1.25199 18.71239
0.69303 0.54629 -0.05065 181.72107 0 -4.00088 24.45674 4.24832 -2.59235 -39.158 5.26134 5.43315 53.61114 -12.37516 62.47485 107.44605 111.43379 62.95197 -1.24675 50.8505 0.5271 -64.15478 91.92405 -16.57047 85.29904 21.87714 77.35894 2.82177 -5.96341 -72.82173 -19.55214 -1.13024 -11.61441 77.17933 7.55163 2.97022 -72.77647 -12.41613 1.2453 18.70175
0.69337 0.54594 -0.05066 181.71852 0 -4.00992 24.5507 4.27988 -2.45058 -38.70975 5.13583 5.49074 52.70072 -12.36221 62.20583 107.53466 112.71732 62.54524 -1.22122 48.407 -2.37674 -64.1468 86.70404 -6.98867 85.22948 21.63753 77.42444 2.7923 -5.9692 -72.85402 -19.64807 -1.12401 -11.49805 77.2243 7.57222 2.97775 -72.78965 -12.46539 1.23954 18.69603
0.69361 0.54578 -0.05067 181.7184 0 -4.0111 24.57996 4.27439 -2.54003 -37.92146 5.09203 5.50078 51.79422 -12.34214 62.16068 107.51821 112.9201 62.55567 -1.21798 47.22907 -2.84535 -64.15193 85.84269 -5.26916 85.27336 21.78418 77.45657 2.76025 -5.97451 -72.87544 -19.67053 -1.13113 -11.39007 77.24746 7.58162 2.98679 -72.79295 -12.47892 1.23692 18.7047
0.69382 0.54568 -0.05069 181.71854 0 -4.00944 24.58667 4.2581 -2.70078 -37.01189 5.08395 5.49868 50.88082 -12.32797 62.18652 107.46968 112.74345 62.64063 -1.22302 46.43768 -2.54686 -64.15521 86.37008 -6.19577 85.27198 22.01077 77.47761 2.72809 -5.97978 -72.89336 -19.66709 -1.14273 -11.28653 77.26368 7.58749 2.99593 -72.79371 -12.481 1.23516 18.71856
0.69405 0.54555 -0.05071 181.71786 0 -4.00896 24.60272 4.24855 -2.81992 -36.15689 5.07004 5.50344 49.96656 -12.31906 62.17666 107.44062 112.73546 62.59478 -1.22287 45.44841 -2.63777 -64.15827 86.2073 -5.82861 85.27855 22.18549 77.50462 2.69682 -5.98442 -72.91303 -19.67758 -1.15183 -11.18131 77.2835 7.5946 3.00393 -72.79604 -12.48964 1.23265 18.73036
0.69427 0.54543 -0.05073 181.72007 0 -4.00893 24.62368 4.23192 -2.97282 -35.30339 5.01027 5.50301 49.06325 -12.27661 62.17633 107.39185 112.7521 62.93944 -1.22927 44.50743 -2.61894 -64.16234 86.19288 -5.70446 85.29234 22.39585 77.528 2.66216 -5.99203 -72.93211 -19.6791 -1.16276 -11.07526 77.3018 7.60393 3.01714 -72.79686 -12.49314 1.23162 18.7408
0.6945 0.5453 -0.05074 181.71637 0 -4.00733 24.62868 4.2273 -3.07537 -34.42011 5.05529 5.51171 48.13948 -12.30618 62.17498 107.37645 112.62624 62.50942 -1.22398 43.581 -2.61843 -64.16514 86.2398 -5.7867 85.29713 22.56235 77.55614 2.63443 -5.99345 -72.95163 -19.69269 -1.17106 -10.9718 77.32151 7.60749 3.01912 -72.80028 -12.50423 1.22776 18.75526
0.69473 0.54512 -0.05072 181.69603 0 -4.0016 24.59459 4.25739 -3.00764 -33.46202 5.38051 5.53118 47.14132 -12.52429 62.15286 107.45718 112.16962 59.75481 -1.1823 42.52736 -2.9082 -64.16568 86.09417 -5.41666 85.29928 22.58945 77.60065 2.62637 -5.97655 -72.97225 -19.75095 -1.16994 -10.87406 77.34626 7.59656 2.99238 -72.80956 -12.54143 1.21527 18.78043
0.69497 0.54492 -0.05068 181.66976 0 -3.99445 24.54523 4.29994 -2.88959 -32.48253 5.81033 5.56307 46.12794 -12.81639 62.1281 107.57302 111.58529 56.25224 -1.12904 41.49344 -3.22644 -64.16538 85.97987 -5.24014 85.29858 22.57362 77.65017 2.6252 -5.95359 -72.99355 -19.82139 -1.16618 -10.77883 77.37269 7.57981 2.95393 -72.82182 -12.58623 1.20001 18.8093
0.6952 0.54473 -0.05065 181.64643 0 -3.98833 24.503 4.33754 -2.80459 -31.52668 6.19277 5.60052 45.13382 -13.08007 62.10562 107.67531 111.07932 53.19887 -1.08209 40.50474 -3.48729 -64.16547 85.88075 -5.24675 85.29858 22.581 77.69703 2.62048 -5.93418 -73.01517 -19.883 -1.16434 -10.68252 77.39868 7.56521 2.91917 -72.83397 -12.62593 1.18641 18.83591
0.69545 0.54455 -0.05062 181.62217 0 -3.98061 24.45896 4.37221 -2.68031 -30.50609 6.57565 5.59077 44.08364 -13.32123 62.08091 107.76686 110.48025 49.67599 -1.03022 39.30307 -3.90379 -64.16538 85.70691 -4.23318 85.29855 22.57526 77.7452 2.61742 -5.91145 -73.03415 -19.9575 -1.15971 -10.58584 77.42318 7.55238 2.89097 -72.84094 -12.67202 1.17114 18.8652
0.69566 0.54435 -0.05058 181.59831 0 -3.97575 24.41563 4.41552 -2.62334 -29.61909 6.98216 5.68185 43.1513 -13.62776 62.0594 107.88891 110.04248 46.96584 -0.98671 38.54099 -4.02053 -64.16551 85.67488 -5.31382 85.29881 22.58538 77.79188 2.6127 -5.89414 -73.05868 -20.00854 -1.16011 -10.49079 77.45113 7.53479 2.84676 -72.85925 -12.70693 1.15868 18.88967
0.69574 0.54407 -0.05052 181.57825 0 -3.9806 24.37564 4.48459 -2.77876 -29.08748 7.42632 6.05306 42.50838 -14.08766 62.04642 108.09199 110.14652 46.56325 -0.96032 39.02051 -3.23552 -64.16652 86.05488 -12.48869 85.30138 22.65378 77.83403 2.60034 -5.89375 -73.09951 -19.99056 -1.17577 -10.39705 77.48946 7.50329 2.75732 -72.90955 -12.70754 1.1548 18.90013
0.69578 0.54377 -0.05046 181.55861 0 -3.98811 24.33739 4.56106 -3.00082 -28.69514 7.89054 6.52439 41.99156 -14.61203 62.03658 108.32375 110.40849 47.02243 -0.94412 39.93381 -2.16365 -64.16778 86.5647 -21.68471 85.30457 22.7386 77.87442 2.58632 -5.89892 -73.14571 -19.94894 -1.19642 -10.30539 77.53101 7.46764 2.65295 -72.97087 -12.6969 1.15384 18.90556
0.69584 0.54349 -0.0504 181.53791 0 -3.99344 24.30004 4.63099 -3.18245 -28.25197 8.34713 6.94695 41.44365 -15.11328 62.02561 108.53895 110.55543 47.17017 -0.92923 40.62534 -1.27129 -64.16887 86.98976 -29.70688 85.30734 22.813 77.91512 2.57398 -5.90124 -73.18871 -19.91903 -1.21431 -10.21441 77.5703 7.43537 2.55784 -73.02624 -12.69259 1.15146 18.91312
0.69591 0.54319 -0.05032 181.52049 0 -4.00283 24.2552 4.71478 -3.40446 -27.7555 8.80243 7.38412 40.78641 -15.5927 62.0134 108.77004 110.87422 46.96945 -0.88972 41.42188 -0.1736 -64.17014 87.52501 -38.81459 85.31054 22.89838 77.95797 2.55803 -5.90477 -73.23491 -19.8853 -1.2342 -10.11645 77.61304 7.39657 2.45158 -73.08576 -12.68371 1.14934 18.9214
0.69595 0.54292 -0.05029 181.49665 0 -4.00438 24.22634 4.77128 -3.5598 -27.40324 9.26218 7.814 40.3847 -16.12985 62.00447 108.97464 110.88191 47.68862 -0.90297 42.10229 0.56688 -64.17113 87.86168 -46.13942 85.31304 22.96539 77.99594 2.54904 -5.90711 -73.27574 -19.85398 -1.25111 -10.03373 77.64931 7.37046 2.3655 -73.13914 -12.6812 1.14744 18.927
0.69591 0.54273 -0.05037 181.45309 0 -3.98403 24.24332 4.75079 -3.50652 -27.41705 9.74232 8.20285 40.67832 -16.82761 62.00425 109.09659 109.92686 50.91692 -1.06907 42.35439 0.23012 -64.17131 87.61002 -48.01868 85.31349 22.97729 78.0203 2.5603 -5.9054 -73.30032 -19.83304 -1.25912 -9.9904 77.66723 7.38042 2.33598 -73.17352 -12.70193 1.14522 18.92592
0.69585 0.54256 -0.05049 181.40347 0 -3.95566 24.27599 4.70258 -3.38555 -27.57098 10.22308 8.57991 41.22108 -17.57736 62.00715 109.191 108.66561 55.01238 -1.28623 42.47348 -0.47321 -64.1712 87.15506 -48.02887 85.31323 22.97041 78.03991 2.57846 -5.90223 -73.31936 -19.81569 -1.26389 -9.96269 77.67846 7.40332 2.32789 -73.20124 -12.72875 1.14318 18.92238
0.69581 0.54239 -0.0506 181.35789 0 -3.9307 24.30023 4.66676 -3.30133 -27.65957 10.69472 8.96026 41.63628 -18.29228 62.00832 109.29971 107.58848 58.59549 -1.47369 42.65599 -0.99372 -64.17124 86.79855 -48.92321 85.31331 22.9726 78.06205 2.59305 -5.8994 -73.34102 -19.79799 -1.2698 -9.92931 77.69255 7.4203 2.3119 -73.23155 -12.75104 1.14117 18.92027
0.69575 0.54221 -0.0507 181.30679 0 -3.90673 24.33013 4.63169 -3.19448 -27.75987 11.20524 9.35391 42.11608 -19.05825 62.01085 109.40266 106.32891 62.7036 -1.6887 42.84648 -1.56829 -64.17124 86.42192 -49.77851 85.31333 22.97311 78.08254 2.60951 -5.89813 -73.3624 -19.77401 -1.27725 -9.89016 77.70755 7.43729 2.28758 -73.26399 -12.78098 1.13871 18.91671
0.69571 0.54205 -0.05083 181.26585 0 -3.87888 24.35177 4.58886 -3.11741 -27.86742 11.63366 9.71441 42.51923 -19.72752 62.01133 109.50974 105.37214 65.91787 -1.8586 42.97638 -2.12665 -64.17123 86.03613 -50.19858 85.3133 22.97241 78.1054 2.62361 -5.89317 -73.38304 -19.76433 -1.28069 -9.86646 77.719 7.45739 2.28592 -73.29038 -12.79583 1.1373 18.91561
